# xmcd
# 
# Track frame offsets:
#     150
#     12303
#     24564
#     37019
#     50651
#     62428
#     73960
#     86195
#     99842
#     109639
#     121906
#     133286
#     146199
#     159267
#     171516
#     182221
#     194446
#     204652
#     216338
#     227886
#     239671
#     251177
#     264871
#     277360
#     289029
#     299941
# 
# Disc length: 4145
# 
# Revision: 0
# Processed by: cddbd v1.5.2PL0 Copyright (c) Steve Scherf et al.
# Submitted via: fre:ac v1.0.17
# 
DISCID=ae102f1a
DTITLE=Hank Williams - Hans Største Hits
DYEAR=2008
DGENRE=Country
TTITLE0=Your Cheatin' Heart
TTITLE1=Move It On Over
TTITLE2=I'm So Lonesome I Could Cry
TTITLE3=Ramblin' Man
TTITLE4=Lone Gone Lonesome Blues
TTITLE5=Kaw-Liga
TTITLE6=Cold, Cold Heart
TTITLE7=Lovesick Blues
TTITLE8=Honky Tonk Blues
TTITLE9=Honky Tonkin'
TTITLE10=My Bucket's Got A Hole In It
TTITLE11=Jambalaya (On The Bayou)
TTITLE12=Hey, Good Lookin'
TTITLE13=I Saw The Light
TTITLE14=I Can't Help It (If I'm Still In Love With You)
TTITLE15=Half As Much
TTITLE16=Why Don't You Love Me
TTITLE17=You Win Again
TTITLE18=Baby We're Really In Love
TTITLE19=Take These Chains From My Heart
TTITLE20=Window Shopping
TTITLE21=Lost Highway
TTITLE22=There's A Tear In My Beer
TTITLE23=Settin' The Woods On Fire
TTITLE24=(I Heard That) Lonesome Whistle
TTITLE25=I'll Never Get Out Of This World Alive
EXTD=
EXTT0=
EXTT1=
EXTT2=
EXTT3=
EXTT4=
EXTT5=
EXTT6=
EXTT7=
EXTT8=
EXTT9=
EXTT10=
EXTT11=
EXTT12=
EXTT13=
EXTT14=
EXTT15=
EXTT16=
EXTT17=
EXTT18=
EXTT19=
EXTT20=
EXTT21=
EXTT22=
EXTT23=
EXTT24=
EXTT25=
PLAYORDER=
